HIERARCHY
ROOT Root
{
  OFFSET 0.0 0.0 0.0
  CHANNELS 6 Xposition Yposition Zposition Zrotation Yrotation Xrotation
  JOINT Hips
  {
    OFFSET 0.0 100.0 0.0
    CHANNELS 6 Xposition Yposition Zposition Zrotation Yrotation Xrotation
    JOINT Spine1
    {
      OFFSET 5.003913 -0.037094 -0.013727
      CHANNELS 3 Zrotation Yrotation Xrotation
      JOINT Spine2
      {
        OFFSET 7.125363 -1e-06 0.0
        CHANNELS 3 Zrotation Yrotation Xrotation
        JOINT Chest
        {
          OFFSET 7.594027 1e-06 0.0
          CHANNELS 3 Zrotation Yrotation Xrotation
          JOINT Neck1
          {
            OFFSET 26.313086 -0.460272 -0.181672
            CHANNELS 3 Zrotation Yrotation Xrotation
            JOINT Neck2
            {
              OFFSET 8.045911 0.0 0.0
              CHANNELS 3 Zrotation Yrotation Xrotation
              JOINT Head
              {
                OFFSET 6.432774 0.0 0.0
                CHANNELS 3 Zrotation Yrotation Xrotation
                JOINT HeadEnd
                {
                  OFFSET 16.169773 0.06451 0.00362
                  CHANNELS 3 Zrotation Yrotation Xrotation
                }
                JOINT Jaw
                {
                  OFFSET 0.108741 3.12938 0.002639
                  CHANNELS 3 Zrotation Yrotation Xrotation
                }
                JOINT LeftEye
                {
                  OFFSET 4.45173 8.166359 3.206392
                  CHANNELS 3 Zrotation Yrotation Xrotation
                }
                JOINT RightEye
                {
                  OFFSET 4.436895 8.135758 -3.222429
                  CHANNELS 3 Zrotation Yrotation Xrotation
                }
              }
            }
          }
          JOINT LeftShoulder
          {
            OFFSET 23.218927 5.195579 1.621656
            CHANNELS 3 Zrotation Yrotation Xrotation
            JOINT LeftArm
            {
              OFFSET 15.902118 2e-06 -2e-06
              CHANNELS 3 Zrotation Yrotation Xrotation
              JOINT LeftForeArm
              {
                OFFSET 28.739307 0.0 -1e-06
                CHANNELS 3 Zrotation Yrotation Xrotation
                JOINT LeftHand
                {
                  OFFSET 27.093981 -4e-06 0.0
                  CHANNELS 3 Zrotation Yrotation Xrotation
                  JOINT LeftHandThumb1
                  {
                    OFFSET 2.276781 3.380274 0.83384
                    CHANNELS 3 Zrotation Yrotation Xrotation
                    JOINT LeftHandThumb2
                    {
                      OFFSET 4.705309 -1e-06 -1e-06
                      CHANNELS 3 Zrotation Yrotation Xrotation
                      JOINT LeftHandThumb3
                      {
                        OFFSET 2.798515 0.0 3e-06
                        CHANNELS 3 Zrotation Yrotation Xrotation
                        JOINT LeftHandThumbEnd
                        {
                          OFFSET 3.180793 4e-06 -4e-06
                          CHANNELS 3 Zrotation Yrotation Xrotation
                        }
                      }
                    }
                  }
                  JOINT LeftHandIndex1
                  {
                    OFFSET 3.247786 2.352677 0.137192
                    CHANNELS 3 Zrotation Yrotation Xrotation
                    JOINT LeftHandIndex2
                    {
                      OFFSET 6.367095 1e-06 0.0
                      CHANNELS 3 Zrotation Yrotation Xrotation
                      JOINT LeftHandIndex3
                      {
                        OFFSET 3.662364 0.0 0.0
                        CHANNELS 3 Zrotation Yrotation Xrotation
                        JOINT LeftHandIndex4
                        {
                          OFFSET 2.329242 4e-06 -4e-06
                          CHANNELS 3 Zrotation Yrotation Xrotation
                          JOINT LeftHandIndexEnd
                          {
                            OFFSET 2.767823 1e-06 0.0
                            CHANNELS 3 Zrotation Yrotation Xrotation
                          }
                        }
                      }
                    }
                  }
                  JOINT LeftHandMiddle1
                  {
                    OFFSET 3.163612 0.945023 -0.406112
                    CHANNELS 3 Zrotation Yrotation Xrotation
                    JOINT LeftHandMiddle2
                    {
                      OFFSET 6.276789 3e-06 0.0
                      CHANNELS 3 Zrotation Yrotation Xrotation
                      JOINT LeftHandMiddle3
                      {
                        OFFSET 4.35652 -1e-06 4e-06
                        CHANNELS 3 Zrotation Yrotation Xrotation
                        JOINT LeftHandMiddle4
                        {
                          OFFSET 2.996877 0.0 8e-06
                          CHANNELS 3 Zrotation Yrotation Xrotation
                          JOINT LeftHandMiddleEnd
                          {
                            OFFSET 2.323256 3e-06 -4e-06
                            CHANNELS 3 Zrotation Yrotation Xrotation
                          }
                        }
                      }
                    }
                  }
                  JOINT LeftHandRing1
                  {
                    OFFSET 2.882606 -0.309162 0.107445
                    CHANNELS 3 Zrotation Yrotation Xrotation
                    JOINT LeftHandRing2
                    {
                      OFFSET 6.033198 0.0 4e-06
                      CHANNELS 3 Zrotation Yrotation Xrotation
                      JOINT LeftHandRing3
                      {
                        OFFSET 4.350578 3e-06 0.0
                        CHANNELS 3 Zrotation Yrotation Xrotation
                        JOINT LeftHandRing4
                        {
                          OFFSET 2.651321 2e-06 -7e-06
                          CHANNELS 3 Zrotation Yrotation Xrotation
                          JOINT LeftHandRingEnd
                          {
                            OFFSET 1.937663 1e-06 -4e-06
                            CHANNELS 3 Zrotation Yrotation Xrotation
                          }
                        }
                      }
                    }
                  }
                  JOINT LeftHandPinky1
                  {
                    OFFSET 2.865315 -1.525436 0.575687
                    CHANNELS 3 Zrotation Yrotation Xrotation
                    JOINT LeftHandPinky2
                    {
                      OFFSET 5.54936 1e-06 -8e-06
                      CHANNELS 3 Zrotation Yrotation Xrotation
                      JOINT LeftHandPinky3
                      {
                        OFFSET 3.070974 0.0 -4e-06
                        CHANNELS 3 Zrotation Yrotation Xrotation
                        JOINT LeftHandPinky4
                        {
                          OFFSET 1.549672 1e-06 0.0
                          CHANNELS 3 Zrotation Yrotation Xrotation
                          JOINT LeftHandPinkyEnd
                          {
                            OFFSET 1.952123 0.0 0.0
                            CHANNELS 3 Zrotation Yrotation Xrotation
                          }
                        }
                      }
                    }
                  }
                }
              }
            }
          }
          JOINT RightShoulder
          {
            OFFSET 23.161716 5.296122 -1.380114
            CHANNELS 3 Zrotation Yrotation Xrotation
            JOINT RightArm
            {
              OFFSET -16.027195 -2e-06 1.1e-05
              CHANNELS 3 Zrotation Yrotation Xrotation
              JOINT RightForeArm
              {
                OFFSET -28.736639 4e-06 2e-06
                CHANNELS 3 Zrotation Yrotation Xrotation
                JOINT RightHand
                {
                  OFFSET -27.133619 6e-06 0.0
                  CHANNELS 3 Zrotation Yrotation Xrotation
                  JOINT RightHandThumb1
                  {
                    OFFSET -2.274328 -3.351035 -0.83067
                    CHANNELS 3 Zrotation Yrotation Xrotation
                    JOINT RightHandThumb2
                    {
                      OFFSET -4.703594 -3e-06 2e-06
                      CHANNELS 3 Zrotation Yrotation Xrotation
                      JOINT RightHandThumb3
                      {
                        OFFSET -2.794935 -4e-06 -3e-06
                        CHANNELS 3 Zrotation Yrotation Xrotation
                        JOINT RightHandThumbEnd
                        {
                          OFFSET -3.183852 4e-06 1e-06
                          CHANNELS 3 Zrotation Yrotation Xrotation
                        }
                      }
                    }
                  }
                  JOINT RightHandIndex1
                  {
                    OFFSET -3.253496 -2.33755 -0.127667
                    CHANNELS 3 Zrotation Yrotation Xrotation
                    JOINT RightHandIndex2
                    {
                      OFFSET -6.344434 0.0 0.0
                      CHANNELS 3 Zrotation Yrotation Xrotation
                      JOINT RightHandIndex3
                      {
                        OFFSET -3.654871 0.0 -8e-06
                        CHANNELS 3 Zrotation Yrotation Xrotation
                        JOINT RightHandIndex4
                        {
                          OFFSET -2.327586 -1e-06 0.0
                          CHANNELS 3 Zrotation Yrotation Xrotation
                          JOINT RightHandIndexEnd
                          {
                            OFFSET -2.770001 3e-06 8e-06
                            CHANNELS 3 Zrotation Yrotation Xrotation
                          }
                        }
                      }
                    }
                  }
                  JOINT RightHandMiddle1
                  {
                    OFFSET -3.168223 -0.944764 0.411762
                    CHANNELS 3 Zrotation Yrotation Xrotation
                    JOINT RightHandMiddle2
                    {
                      OFFSET -6.266691 -1e-06 -4e-06
                      CHANNELS 3 Zrotation Yrotation Xrotation
                      JOINT RightHandMiddle3
                      {
                        OFFSET -4.348901 0.0 0.0
                        CHANNELS 3 Zrotation Yrotation Xrotation
                        JOINT RightHandMiddle4
                        {
                          OFFSET -3.00024 2e-06 -4e-06
                          CHANNELS 3 Zrotation Yrotation Xrotation
                          JOINT RightHandMiddleEnd
                          {
                            OFFSET -2.321477 -4e-06 -4e-06
                            CHANNELS 3 Zrotation Yrotation Xrotation
                          }
                        }
                      }
                    }
                  }
                  JOINT RightHandRing1
                  {
                    OFFSET -2.885654 0.293261 -0.119232
                    CHANNELS 3 Zrotation Yrotation Xrotation
                    JOINT RightHandRing2
                    {
                      OFFSET -6.032835 -1e-06 -4e-06
                      CHANNELS 3 Zrotation Yrotation Xrotation
                      JOINT RightHandRing3
                      {
                        OFFSET -4.33881 0.0 -4e-06
                        CHANNELS 3 Zrotation Yrotation Xrotation
                        JOINT RightHandRing4
                        {
                          OFFSET -2.654903 -4e-06 -4e-06
                          CHANNELS 3 Zrotation Yrotation Xrotation
                          JOINT RightHandRingEnd
                          {
                            OFFSET -1.935122 0.0 4e-06
                            CHANNELS 3 Zrotation Yrotation Xrotation
                          }
                        }
                      }
                    }
                  }
                  JOINT RightHandPinky1
                  {
                    OFFSET -2.866241 1.503904 -0.60527
                    CHANNELS 3 Zrotation Yrotation Xrotation
                    JOINT RightHandPinky2
                    {
                      OFFSET -5.553177 -2e-06 0.0
                      CHANNELS 3 Zrotation Yrotation Xrotation
                      JOINT RightHandPinky3
                      {
                        OFFSET -3.062664 -1e-06 -4e-06
                        CHANNELS 3 Zrotation Yrotation Xrotation
                        JOINT RightHandPinky4
                        {
                          OFFSET -1.546529 2e-06 4e-06
                          CHANNELS 3 Zrotation Yrotation Xrotation
                          JOINT RightHandPinkyEnd
                          {
                            OFFSET -1.952341 0.0 -4e-06
                            CHANNELS 3 Zrotation Yrotation Xrotation
                          }
                        }
                      }
                    }
                  }
                }
              }
            }
          }
        }
      }
    }
    JOINT LeftLeg
    {
      OFFSET -8.443107 2.567604 10.043214
      CHANNELS 3 Zrotation Yrotation Xrotation
      JOINT LeftShin
      {
        OFFSET 43.229198 1e-06 -1e-06
        CHANNELS 3 Zrotation Yrotation Xrotation
        JOINT LeftFoot
        {
          OFFSET 42.298611 1e-06 1e-06
          CHANNELS 3 Zrotation Yrotation Xrotation
          JOINT LeftToeBase
          {
            OFFSET 14.165858 1e-06 0.0
            CHANNELS 3 Zrotation Yrotation Xrotation
            JOINT LeftToeEnd
            {
              OFFSET 6.7141 -0.234461 0.0
              CHANNELS 3 Zrotation Yrotation Xrotation
            }
          }
        }
      }
    }
    JOINT RightLeg
    {
      OFFSET -8.303923 2.592729 -10.047278
      CHANNELS 3 Zrotation Yrotation Xrotation
      JOINT RightShin
      {
        OFFSET -43.369682 0.0 1e-06
        CHANNELS 3 Zrotation Yrotation Xrotation
        JOINT RightFoot
        {
          OFFSET -42.260784 4e-06 2e-06
          CHANNELS 3 Zrotation Yrotation Xrotation
          JOINT RightToeBase
          {
            OFFSET -14.222245 -2e-06 -1e-06
            CHANNELS 3 Zrotation Yrotation Xrotation
            JOINT RightToeEnd
            {
              OFFSET -6.660062 0.232574 -2e-06
              CHANNELS 3 Zrotation Yrotation Xrotation
            }
          }
        }
      }
    }
  }
}
MOTION
Frames: 4
Frame Time: 0.03333333333333333
0.0 0.0 0.0 0.0 -0.0 0.0 -2.467346 9.666509 77.857277 -60.959904 -88.942787 -118.957581 -2.375942 -0.888513 -0.546599 -12.208998 -0.10598 1.114842 14.904803 -0.008499 0.853791 16.916473 -3.118337 1.051335 -2.221031 0.004242 -0.309482 -19.5805 4.204145 0.418219 6e-06 -0.0 -0.0 -0.24751 -0.161962 -0.003378 -0.131734 -0.026284 -0.002869 -0.164856 -0.287496 -0.002982 -28.338669 -67.79702 36.516563 24.160929 -52.486488 -79.999672 140.656631 1.726795 -0.742115 1.025382 29.642086 17.772034 17.636627 -26.322733 52.41119 -19.466663 -14.395598 29.410393 -0.0 -8.774822 -2e-06 15.88062 -18.214106 5.910094 -0.609776 -1.795653 -3.889327 -4.807089 -11.046811 -2.937851 5e-06 -20.976019 -1e-06 -5.019969 -25.03356 -4.031882 6e-06 1e-06 0.0 -10.634533 -5.68697 -3.565586 10.573275 -17.922951 -3.113902 3e-06 -13.821209 1e-06 -0.501777 -31.181505 -4.027014 -11.041729 -57.991402 6.999002 -13.982715 -7.150197 -2.875041 13.772731 -8.401492 -3.218242 0.347733 -34.211555 0.771655 -0.963029 -17.73337 2.621019 1e-06 -1e-06 0.0 -17.346422 -20.095219 -4.201781 21.757561 -1.638376 3.866428 1e-06 -6.338822 1e-06 -1.697589 -22.591742 -6.194006 -1e-06 -5e-06 -2e-06 141.259262 -80.315414 52.860596 13.079699 -48.649025 -84.391312 138.693359 -0.420205 0.289568 2.317577 38.627712 21.778837 22.182116 -20.375895 49.933315 -16.701809 -16.743526 28.476524 -3e-06 -12.690598 -1e-06 16.18354 -18.262033 2.490911 -0.10592 -1.513855 -4.275881 -5.03904 -5.612869 -2.953556 4e-06 -11.020521 -2e-06 -6.111297 -15.895329 -3.84047 0.0 1e-06 0.0 -10.283369 -5.680289 -4.341838 11.028293 -11.302402 -2.372632 -1.384269 -14.238576 -6.32012 -0.625438 -26.924179 -3.827599 -3.624857 -49.207169 -5.069625 -13.708523 -7.363473 -3.720939 18.141146 -14.052736 -3.242672 6e-06 -18.787266 -1e-06 -0.429712 -8.456043 2.555504 0.0 0.0 -1e-06 -15.923532 -20.094479 -5.473584 30.419205 -7.190825 1.735927 1e-06 -8.162925 -0.0 -1.8619 -22.861467 -6.167941 1e-06 -1e-06 -1e-06 176.396149 -14.990652 -152.487595 -14.154048 -11.423688 146.109192 -89.172058 9.562334 -6.911536 -9.089405 1.259715 2.075134 -0.999998 0.0 0.0 -4.104126 -15.532404 -138.093277 -15.237164 -15.705113 125.510162 -102.736496 14.705037 -16.084467 -12.073152 0.504435 1.748893 -1.000003 -0.0 0.0 
0.0 0.0 0.0 0.0 -0.0 0.0 -2.461375 9.665555 77.85714 -57.254292 -88.914833 -122.629944 -2.357727 -0.886206 -0.539148 -12.216729 -0.116971 1.134339 14.879605 0.005018 0.916293 16.751915 -3.202646 1.010653 -2.222458 0.018562 -0.319162 -19.573118 4.209913 0.484232 6e-06 -0.0 0.0 -0.25078 -0.173737 -0.003961 -0.13251 -0.041549 -0.002314 -0.171868 -0.295031 -0.004818 -28.004969 -67.673347 36.235775 24.472361 -52.396114 -80.113991 140.518707 1.674367 -0.717454 1.0524 29.818056 18.129726 17.636637 -26.322746 52.411213 -19.466675 -14.395607 29.410402 -0.0 -8.774826 -1e-06 15.87587 -18.241688 5.924465 -0.609776 -1.795655 -3.889329 -4.807091 -11.046816 -2.937852 4e-06 -20.976028 -1e-06 -5.019974 -25.033566 -4.031882 6e-06 -0.0 -0.0 -10.63454 -5.686975 -3.565588 10.573279 -17.922958 -3.113902 2e-06 -13.821216 1e-06 -0.501778 -31.181524 -4.027018 -11.044375 -58.033066 6.982993 -13.982719 -7.150201 -2.875041 13.772736 -8.401494 -3.218244 0.347733 -34.211571 0.771655 -0.96303 -17.733381 2.62102 -0.0 0.0 0.0 -17.34643 -20.095228 -4.201779 21.75757 -1.638375 3.866427 2e-06 -6.338825 0.0 -1.697591 -22.591757 -6.194009 0.0 -2e-06 -2e-06 142.747269 -80.349457 51.428535 12.924355 -48.857349 -84.615479 138.873474 -0.525232 0.368103 2.096951 38.751839 21.523943 22.182123 -20.3759 49.933346 -16.701818 -16.743536 28.476542 -3e-06 -12.690605 -1e-06 16.268387 -18.279009 2.46595 -0.10592 -1.513855 -4.275884 -5.039042 -5.612873 -2.953558 4e-06 -11.020528 -2e-06 -6.111301 -15.895339 -3.840473 0.0 1e-06 0.0 -10.283374 -5.680289 -4.341841 11.028299 -11.302409 -2.372634 -1.384269 -14.238586 -6.320125 -0.625438 -26.924202 -3.827605 -3.608531 -49.321724 -5.073985 -13.708529 -7.363479 -3.720941 18.141157 -14.052743 -3.242676 6e-06 -18.787275 -2e-06 -0.429712 -8.456047 2.555504 -0.0 0.0 -0.0 -15.923541 -20.094494 -5.473589 30.419224 -7.190829 1.735927 1e-06 -8.16293 -1e-06 -1.861899 -22.861483 -6.167946 0.0 -1e-06 -1e-06 176.291245 -15.128695 -152.130707 -14.155898 -11.662428 145.774765 -88.811874 9.639706 -6.801187 -9.129224 1.263065 2.066382 -0.999999 0.0 0.0 -4.1168 -15.417498 -138.732086 -15.434893 -15.473829 126.383049 -102.427132 14.451093 -15.850747 -12.038182 0.501791 1.742011 -1.000002 0.0 -0.0 
0.0 0.0 0.0 0.0 -0.0 0.0 -2.478988 9.659052 77.860687 -54.494652 -88.892532 -125.33445 -2.330752 -0.880968 -0.529634 -12.217932 -0.133272 1.146105 14.864055 -0.00454 0.967226 16.601879 -3.266082 0.971766 -2.218769 0.041149 -0.324851 -19.581001 4.18065 0.502615 6e-06 -0.0 -0.0 -0.253048 -0.180139 -0.004474 -0.132027 -0.048428 -0.002318 -0.177254 -0.299765 -0.005752 -27.767502 -67.544708 36.00909 24.767836 -52.326206 -80.072891 140.418716 1.65859 -0.689252 1.13765 30.003031 18.440765 17.636627 -26.322729 52.411194 -19.466658 -14.395592 29.410381 -0.0 -8.774819 -2e-06 15.893922 -18.242737 5.906101 -0.609777 -1.795653 -3.889327 -4.807087 -11.046807 -2.937849 5e-06 -20.976009 -0.0 -5.019968 -25.033546 -4.031879 6e-06 -0.0 -0.0 -10.634532 -5.686969 -3.565587 10.573271 -17.922945 -3.113899 3e-06 -13.821205 1e-06 -0.501777 -31.181488 -4.027013 -11.023136 -58.042492 6.953798 -13.982711 -7.150197 -2.875043 13.772725 -8.401489 -3.21824 0.347734 -34.211544 0.771656 -0.963029 -17.733366 2.62102 1e-06 -0.0 0.0 -17.346413 -20.095213 -4.201783 21.757555 -1.638375 3.866429 2e-06 -6.338821 1e-06 -1.69759 -22.591742 -6.194004 -0.0 -3e-06 -2e-06 143.703766 -80.389221 50.525852 12.824275 -49.082603 -84.714211 139.072739 -0.583929 0.407238 2.02902 38.822502 21.461601 22.18211 -20.375891 49.933319 -16.701811 -16.743528 28.476528 -3e-06 -12.6906 -1e-06 16.393948 -18.294184 2.455333 -0.105919 -1.513856 -4.275881 -5.039041 -5.612872 -2.953557 3e-06 -11.020525 -2e-06 -6.111297 -15.895334 -3.84047 0.0 1e-06 -0.0 -10.283369 -5.680288 -4.341838 11.028294 -11.302406 -2.372633 -1.384269 -14.238583 -6.320122 -0.625439 -26.924191 -3.827603 -3.6216 -49.475986 -5.044822 -13.708523 -7.363476 -3.720939 18.14115 -14.052739 -3.242675 5e-06 -18.78727 -3e-06 -0.429712 -8.456045 2.555503 0.0 1e-06 -0.0 -15.923534 -20.094484 -5.473584 30.41921 -7.190825 1.735925 2e-06 -8.162927 -1e-06 -1.861902 -22.861469 -6.167943 -0.0 -2e-06 -1e-06 176.221176 -15.250793 -151.634949 -14.057782 -11.877485 145.243546 -88.349251 9.753258 -6.742743 -9.129004 1.267449 2.061641 -0.999998 0.0 0.0 -4.134647 -15.319797 -139.381042 -15.635548 -15.276646 127.243843 -102.10984 14.196495 -15.611827 -11.969997 0.49409 1.742756 -1.0 0.0 -0.0 
0.0 0.0 0.0 0.0 -0.0 0.0 -2.513863 9.641653 77.854645 -52.658588 -88.886711 -127.099152 -2.298581 -0.888417 -0.520947 -12.206817 -0.142945 1.151455 14.86557 -0.038868 1.003586 16.456017 -3.309829 0.932389 -2.210909 0.074552 -0.304514 -19.591379 4.085529 0.481489 6e-06 -0.0 -0.0 -0.252539 -0.180603 -0.004797 -0.125589 -0.047227 -0.002198 -0.176958 -0.300459 -0.006641 -27.588091 -67.445145 35.800739 25.059744 -52.231758 -79.979889 140.349426 1.677128 -0.641078 1.198311 30.187483 18.634657 17.636629 -26.322737 52.411213 -19.466669 -14.395604 29.410398 -0.0 -8.774826 -2e-06 15.923444 -18.225185 5.865441 -0.609776 -1.795654 -3.889328 -4.807092 -11.046813 -2.937851 4e-06 -20.976021 -2e-06 -5.019973 -25.033562 -4.031883 6e-06 -1e-06 -0.0 -10.634539 -5.686975 -3.565587 10.573278 -17.922955 -3.113903 2e-06 -13.821213 0.0 -0.501779 -31.181511 -4.027019 -10.990897 -58.024384 6.901239 -13.982719 -7.1502 -2.875041 13.772735 -8.401492 -3.218243 0.347734 -34.211555 0.771653 -0.963028 -17.733372 2.621018 -1e-06 0.0 0.0 -17.34643 -20.095224 -4.20178 21.757568 -1.638374 3.866428 2e-06 -6.338825 0.0 -1.697591 -22.591755 -6.194009 -1e-06 -3e-06 -2e-06 144.225281 -80.430801 50.056396 12.809159 -49.327091 -84.752518 139.300385 -0.62322 0.411349 2.074678 38.884876 21.467567 22.182121 -20.375895 49.933315 -16.701817 -16.743528 28.47653 -3e-06 -12.690601 -1e-06 16.501204 -18.302767 2.448637 -0.105919 -1.513856 -4.275881 -5.039041 -5.612873 -2.953557 4e-06 -11.020527 -2e-06 -6.111298 -15.895338 -3.840472 0.0 1e-06 -0.0 -10.283373 -5.68029 -4.341839 11.028297 -11.302408 -2.372633 -1.384269 -14.238585 -6.320122 -0.625437 -26.924191 -3.827602 -3.648258 -49.64003 -4.984101 -13.708527 -7.363479 -3.720939 18.141151 -14.052742 -3.242675 7e-06 -18.787271 -3e-06 -0.429711 -8.456043 2.555503 -0.0 -0.0 -0.0 -15.923538 -20.09449 -5.473584 30.419214 -7.190829 1.735927 2e-06 -8.162927 -1e-06 -1.861901 -22.861479 -6.167944 1e-06 -2e-06 -1e-06 176.140884 -15.328983 -151.123886 -14.009216 -12.053467 144.699036 -87.875511 9.895083 -6.77843 -9.078569 1.274862 2.055534 -0.999999 -0.0 -0.0 -4.196041 -15.260776 -140.137405 -15.925423 -15.146787 128.263092 -101.801476 13.912034 -15.347352 -11.845363 0.483851 1.747144 -1.000001 0.0 -0.0 
